<svg width="54" height="60" viewBox="0 0 54 60" fill="none" xmlns="http://www.w3.org/2000/svg">
<path d="M6.62362 11.1696L25.5449 21.8732C25.7422 21.9849 25.9587 22.0389 26.1731 22.0389C26.5337 22.0389 26.8889 21.8863 27.1386 21.5984L42.211 4.21573L42.666 7.21378C42.7619 7.84618 43.3064 8.29941 43.9271 8.29941C43.9909 8.29941 44.0555 8.29456 44.1204 8.28473C44.8176 8.17886 45.2972 7.52781 45.1913 6.83053L44.3192 1.08539C44.2658 0.7333 44.0679 0.419652 43.7731 0.219919C43.4784 0.0201851 43.1135 -0.0474994 42.7669 0.0333389L37.1213 1.34872C36.4343 1.50873 36.0073 2.19529 36.1673 2.88222C36.3273 3.56916 37.0135 3.99621 37.7008 3.83619L39.5291 3.41029L25.8932 19.1358L7.88115 8.9465C7.26714 8.59901 6.48787 8.81535 6.14089 9.42924C5.79353 10.0431 6.00974 10.8223 6.62362 11.1696Z" fill="#2D2D2D"/>
<path d="M2.23459 53.6317H15.1332C15.8385 53.6317 16.4103 53.0599 16.4103 52.3546V24.6462C16.4103 23.9409 15.8385 23.3691 15.1332 23.3691H2.23459C1.52926 23.3691 0.95752 23.9409 0.95752 24.6462V52.3546C0.95752 53.0599 1.52926 53.6317 2.23459 53.6317ZM3.51165 25.9233H13.8562V51.0775H3.51165V25.9233Z" fill="#2D2D2D"/>
<path d="M37.2625 14.615V52.3557C37.2625 53.0611 37.8342 53.6328 38.5395 53.6328H50.4828C51.1881 53.6328 51.7598 53.0611 51.7598 52.3557V14.615C51.7598 13.9096 51.1881 13.3379 50.4828 13.3379H38.5395C37.8343 13.3379 37.2625 13.9096 37.2625 14.615ZM39.8166 15.892H49.2057V51.0787H39.8166V15.892Z" fill="#2D2D2D"/>
<path d="M20.8657 35.3145C20.1604 35.3145 19.5886 35.8862 19.5886 36.5915V52.3567C19.5886 53.062 20.1604 53.6337 20.8657 53.6337H32.809C33.5143 53.6337 34.086 53.062 34.086 52.3567V36.5915C34.086 35.8862 33.5143 35.3145 32.809 35.3145H20.8657ZM31.5319 51.0796H22.1428V37.8686H31.5319V51.0796Z" fill="#2D2D2D"/>
<path d="M52.3944 56.8105H1.27707C0.571743 56.8105 0 57.3823 0 58.0876C0 58.7929 0.571743 59.3647 1.27707 59.3647H52.3944C53.0997 59.3647 53.6714 58.7929 53.6714 58.0876C53.6714 57.3823 53.0997 56.8105 52.3944 56.8105Z" fill="#2D2D2D"/>
</svg>
