<svg width="618" height="330" viewBox="0 0 618 330" fill="none" xmlns="http://www.w3.org/2000/svg">
<path d="M198.192 91.2369L147.435 79.8721L100.783 110.675L88.8039 100.773L75.9529 116.555L61.6116 114.22L39.6777 103.53L44.9081 134.164L20.9496 154.812L25.252 174.307L0 201.706L14.1726 212.452L38.2999 217.094L100.783 204.716L86.245 259.177L53.4567 267.841L67.9949 284.776L101.711 280.219L125.923 255.323L145.944 225.617L159.302 221.904L183.597 279.91L154.043 292.428L170.718 305.902L214.108 298.476L217.932 230.709L277.041 233.972L277.182 237.207L339.89 131.942L298.469 97.0318L198.192 91.2369ZM87.3698 118.411L87.1729 118.383L87.5104 118.327L87.3698 118.411Z" fill="url(#paint0_linear_1_48)"/>
<path d="M307.607 302.667L332.971 304.524L320.767 278.222L308.76 259.768L315.002 242.693L404.903 235.154L428.299 250.991L401.079 298.701L427.371 298.363L457.966 245.646L451.189 225.533L500.118 229.106L481.165 275.915L506.952 269.501L520.927 216.812L491.007 202.944L510.917 192.395L528.604 159.313L569.716 173.941L586.251 174.701L602.139 167.921L583.72 134.249L588.81 114.67L586.87 109.072L609.056 98.9448L617.999 43.4429L595.952 83.9511L583.579 85.8921V85.864L589.26 42.0645L572.922 74.4148L549.666 83.3322L499.837 85.6671L443.4 53.3449L424.418 58.746L400.432 68.5355L374.533 101.111L346.553 110.478L267.76 245.365L304.401 281.457L307.607 302.667Z" fill="url(#paint1_linear_1_48)"/>
<path opacity="0.4" fill-rule="evenodd" clip-rule="evenodd" d="M279.696 224.915L279.387 225.421C277.728 229.557 276.069 233.692 274.409 237.827C273.116 241.118 271.85 244.41 270.501 247.673C270.473 247.757 270.388 247.842 270.36 247.926L280.09 257.518C280.062 246.463 280.033 235.689 280.005 224.971C279.893 224.943 279.78 224.943 279.696 224.915ZM583.705 134.25L588.794 114.671L588.063 112.533C585.645 113.967 583.227 115.402 580.864 116.893C579.824 117.54 578.896 118.384 577.827 119.2C576.028 117.512 574.284 115.908 572.625 114.277C572.288 113.939 572.203 113.292 572.063 112.758C571.022 108.679 569.982 104.6 568.829 100.043C565.539 107.891 562.418 115.29 559.184 122.997C557.272 121.788 555.387 120.634 553.56 119.397C553.307 119.228 553.363 118.609 553.335 118.187C552.66 111.464 552.013 104.741 551.338 98.0173C551.282 97.5954 551.198 97.1734 551.085 96.3857C548.835 98.8331 546.726 101.055 544.758 103.39C543.858 104.431 543.099 104.6 541.918 103.953C540.737 103.306 539.415 102.884 537.981 102.265C536.912 104.037 535.872 105.753 534.832 107.497C533.285 110.114 531.795 112.758 530.192 115.346C529.91 115.824 529.207 116.246 528.673 116.33C525.242 116.752 521.868 116.33 518.634 115.065C518.044 114.839 517.453 114.052 517.313 113.405C516.328 108.623 515.457 103.784 514.557 98.9738C514.444 98.383 514.276 97.8204 514.079 96.8921C511.689 100.324 509.523 103.475 507.274 106.569C506.824 107.188 506.036 107.722 505.305 108.032C502.184 109.241 498.922 110.085 495.519 109.804C494.338 109.72 493.86 110.254 493.41 111.154C490.908 116.134 488.405 121.113 485.818 126.064C485.452 126.739 484.721 127.47 484.046 127.639C480.194 128.567 477.888 131.071 475.498 134.137C469.958 141.31 467.23 149.75 463.603 157.795C462.815 159.539 462 161.283 461.381 163.112C460.959 164.321 460.313 164.462 459.16 164.434C456.151 164.378 453.114 164.49 450.105 164.575C449.065 164.603 448.53 165.081 448.165 166.15C444.931 175.067 441.613 183.957 438.323 192.846C438.238 193.071 438.126 193.268 437.816 193.999C435.679 191.243 433.486 188.908 431.827 186.207C430.393 183.844 429.605 181.087 428.368 178.584C428.115 178.049 427.215 177.543 426.596 177.543C425.022 177.487 423.419 177.74 421.9 177.852C418.413 166.713 416.895 155.376 415.095 143.955C414.673 144.714 414.224 145.474 413.802 146.262C412.339 149.075 410.709 151.803 409.499 154.701C407.953 158.498 405.534 161.227 401.766 162.915C400.473 163.506 399.404 164.687 398.279 165.644C392.346 170.735 389.815 177.88 386.778 184.716C385.513 187.586 384.219 190.455 382.757 193.69C381.267 191.608 379.889 189.808 378.623 187.923C377.976 186.939 377.302 186.798 376.149 186.91C372.915 187.22 370.525 188.626 368.753 191.411C367.516 193.324 365.885 194.984 364.507 196.812C363.916 197.6 363.354 197.881 362.342 197.656C357.758 196.672 357.73 196.728 355.424 200.863C353.427 204.464 351.403 208.093 349.181 212.059C347.578 208.74 346.116 205.702 344.541 202.467C342.264 203.226 340.014 203.817 337.849 204.745C335.768 205.645 333.799 206.827 331.578 207.98C330.284 202.41 329.075 197.066 327.782 191.496C325.926 191.861 324.098 192.143 322.355 192.649C321.82 192.79 321.427 193.549 321.061 194.084C313.947 205.336 309.588 217.798 305.032 230.204C304.217 232.426 303.514 234.676 302.473 236.786C299.746 242.272 296.849 247.645 293.925 253.214C292.688 252.624 291.507 252.23 290.494 251.527C288.919 250.458 287.879 250.626 286.726 252.258C285.123 254.537 283.211 256.59 281.439 258.756C281.411 258.784 281.383 258.812 281.355 258.841L304.358 281.486L307.591 302.696L332.956 304.553L320.724 278.251L308.744 259.797L314.959 242.722L404.888 235.183L428.256 251.02L401.035 298.73L427.328 298.392L457.923 245.675L451.174 225.562L500.103 229.135L481.15 275.944L506.936 269.53L520.94 216.841L491.02 202.973L510.929 192.424L528.617 159.342L569.729 173.97L586.264 174.73L602.18 167.95L583.705 134.25Z" fill="url(#paint2_linear_1_48)"/>
<path opacity="0.6" fill-rule="evenodd" clip-rule="evenodd" d="M0.036377 201.765L14.1528 212.482L38.28 217.124L100.763 204.747L86.2251 259.179L53.4368 267.844L67.975 284.778L101.691 280.221L125.903 255.326L145.925 225.62L159.282 221.906L183.578 279.912L154.023 292.43L170.699 305.905L214.088 298.478L217.913 230.711L264.086 233.243C263.439 230.261 262.793 227.307 262.202 224.325C261.302 219.684 259.699 215.605 256.1 212.426C255.706 212.061 255.369 211.526 255.2 210.992C254.328 208.375 253.541 205.759 252.725 203.143C251.629 199.711 250.532 196.279 249.435 192.847C249.323 192.847 249.239 192.875 249.126 192.875C248.423 201.849 247.72 210.823 247.017 220.134C246.539 219.571 246.286 219.262 246.033 218.924C244.767 217.152 243.418 215.464 242.293 213.608C241.477 212.286 240.69 212.089 239.396 212.848C238.581 213.326 237.625 213.58 236.641 213.945C234.7 209.472 232.76 205.14 230.932 200.752C230.229 199.064 229.807 197.264 229.301 195.52C226.489 185.674 223.79 175.772 218.897 166.686C218.672 166.236 218.391 165.645 217.969 165.504C216.619 165.026 215.241 164.688 213.807 164.295C212.485 168.542 211.22 172.593 209.898 176.841C208.211 175.828 206.749 174.787 205.174 173.972C203.543 173.156 201.828 172.565 200.084 171.834C198.678 174.253 197.357 176.503 195.922 179.007C194.432 175.8 193.054 172.903 191.704 169.977C190.158 166.629 190.13 166.601 186.502 167.108C185.687 167.22 185.265 166.967 184.843 166.32C183.887 164.829 182.678 163.451 181.834 161.903C180.625 159.653 178.825 158.415 176.323 157.993C175.423 157.853 174.917 157.909 174.326 158.64C173.257 160.019 172.076 161.341 170.783 162.86C169.827 160.272 169.011 157.965 168.168 155.687C166.199 150.229 164.625 144.547 160.322 140.271C159.507 139.455 158.747 138.499 157.763 137.964C154.923 136.445 153.18 134.195 152.195 131.185C151.436 128.878 150.311 126.656 149.355 124.405C149.074 123.758 148.765 123.167 148.484 122.549C146.431 131.297 144.575 139.961 141.2 148.401C140.019 148.232 138.782 147.951 137.545 147.894C137.067 147.866 136.336 148.204 136.111 148.598C135.014 150.454 134.227 152.564 132.961 154.308C131.527 156.277 129.699 157.993 127.843 159.991C127.618 159.4 127.562 159.231 127.506 159.062C125.453 152.001 123.372 144.941 121.376 137.852C121.122 137.008 120.757 136.614 119.941 136.53C117.579 136.304 115.245 136.023 112.883 135.911C111.983 135.854 111.477 135.742 111.224 134.757C110.859 133.323 110.324 131.916 109.79 130.51C107.428 124.068 105.797 117.373 101.888 111.521C101.635 111.156 101.382 110.79 101.129 110.452L100.791 110.677L88.8122 100.775L75.9612 116.557L61.6199 114.222L39.686 103.532L44.9164 134.167L20.9579 154.814L25.2603 174.309L0.036377 201.624C0.036377 201.68 0.036377 201.737 0.036377 201.765ZM87.4624 118.329L87.3218 118.413L87.125 118.385L87.4624 118.329Z" fill="url(#paint3_linear_1_48)"/>
<path opacity="0.6" fill-rule="evenodd" clip-rule="evenodd" d="M0.0390625 201.765L14.1555 212.482L38.2827 217.124L100.766 204.747L86.2278 259.179L53.4395 267.844L67.9777 284.778L101.694 280.221L125.906 255.326L145.927 225.62L159.284 221.906L183.58 279.912L154.026 292.43L170.701 305.905L214.091 298.478L217.915 230.711L264.089 233.243C263.442 230.261 262.795 227.307 262.205 224.325C261.305 219.684 259.702 215.605 256.103 212.426C255.709 212.061 255.371 211.526 255.203 210.992C254.331 208.375 253.544 205.759 252.728 203.143C251.631 199.711 250.535 196.279 249.438 192.847C249.326 192.847 249.241 192.875 249.129 192.875C248.426 201.849 247.723 210.823 247.02 220.134C246.542 219.571 246.289 219.262 246.036 218.924C244.77 217.152 243.42 215.464 242.296 213.608C241.48 212.286 240.693 212.089 239.399 212.848C238.584 213.326 237.628 213.58 236.643 213.945C234.703 209.472 232.763 205.14 230.935 200.752C230.232 199.064 229.81 197.264 229.304 195.52C226.492 185.674 223.792 175.772 218.899 166.686C218.674 166.236 218.393 165.645 217.971 165.504C216.622 165.026 215.244 164.688 213.81 164.295C212.488 168.542 211.223 172.593 209.901 176.841C208.214 175.828 206.751 174.787 205.177 173.972C203.546 173.156 201.83 172.565 200.087 171.834C198.681 174.253 197.359 176.503 195.925 179.007C194.435 175.8 193.057 172.903 191.707 169.977C190.16 166.629 190.132 166.601 186.505 167.108C185.689 167.22 185.268 166.967 184.846 166.32C183.89 164.829 182.68 163.451 181.837 161.903C180.628 159.653 178.828 158.415 176.325 157.993C175.425 157.853 174.919 157.909 174.329 158.64C173.26 160.019 172.079 161.341 170.786 162.86C169.829 160.272 169.014 157.965 168.17 155.687C166.202 150.229 164.627 144.547 160.325 140.271C159.509 139.455 158.75 138.499 157.766 137.964C154.926 136.445 153.182 134.195 152.198 131.185C151.439 128.878 150.314 126.656 149.358 124.405C149.077 123.758 148.767 123.167 148.486 122.549C146.433 131.297 144.577 139.961 141.203 148.401C140.022 148.232 138.785 147.951 137.547 147.894C137.069 147.866 136.338 148.204 136.113 148.598C135.017 150.454 134.229 152.564 132.964 154.308C131.53 156.277 129.702 157.993 127.846 159.991C127.621 159.4 127.565 159.231 127.508 159.062C125.456 152.001 123.375 144.941 121.378 137.852C121.125 137.008 120.76 136.614 119.944 136.53C117.582 136.304 115.248 136.023 112.886 135.911C111.986 135.854 111.48 135.742 111.227 134.757C110.861 133.323 110.327 131.916 109.793 130.51C107.431 124.068 105.8 117.373 101.891 111.521C101.638 111.156 101.385 110.79 101.132 110.452L100.794 110.677L88.8149 100.775L75.9639 116.557L61.6225 114.222L39.6887 103.532L44.9191 134.167L20.9606 154.814L25.263 174.309L0.0390625 201.624C0.0390625 201.68 0.0390625 201.737 0.0390625 201.765ZM87.4651 118.329L87.3245 118.413L87.1277 118.385L87.4651 118.329Z" fill="url(#paint4_linear_1_48)"/>
<path d="M273.949 140.203L303.194 168.953L212 329.692L372.117 171.541L341.016 129.204L419.162 0L273.949 140.203Z" fill="url(#paint5_radial_1_48)"/>
<defs>
<linearGradient id="paint0_linear_1_48" x1="112.996" y1="89.4269" x2="246.163" y2="270.354" gradientUnits="userSpaceOnUse">
<stop offset="0.051" stop-color="#FF1F2C"/>
<stop offset="0.2187" stop-color="#F51C29"/>
<stop offset="0.5078" stop-color="#D9131F"/>
<stop offset="0.8812" stop-color="#AC0510"/>
<stop offset="1" stop-color="#9C000B"/>
</linearGradient>
<linearGradient id="paint1_linear_1_48" x1="625.494" y1="173.284" x2="336.689" y2="173.284" gradientUnits="userSpaceOnUse">
<stop stop-color="#00CB47"/>
<stop offset="0.2143" stop-color="#00C13F"/>
<stop offset="0.5836" stop-color="#00A52B"/>
<stop offset="1" stop-color="#007E0E"/>
</linearGradient>
<linearGradient id="paint2_linear_1_48" x1="627.355" y1="200.437" x2="344.134" y2="200.437" gradientUnits="userSpaceOnUse">
<stop stop-color="#00CB47"/>
<stop offset="0.2143" stop-color="#00C13F"/>
<stop offset="0.5836" stop-color="#00A52B"/>
<stop offset="1" stop-color="#007E0E"/>
</linearGradient>
<linearGradient id="paint3_linear_1_48" x1="275.265" y1="-12.1903" x2="84.8902" y2="266.237" gradientUnits="userSpaceOnUse">
<stop offset="0.051" stop-color="#FF1F2C"/>
<stop offset="0.2187" stop-color="#F51C29"/>
<stop offset="0.5078" stop-color="#D9131F"/>
<stop offset="0.8812" stop-color="#AC0510"/>
<stop offset="1" stop-color="#9C000B"/>
</linearGradient>
<linearGradient id="paint4_linear_1_48" x1="275.268" y1="-12.1903" x2="84.8928" y2="266.237" gradientUnits="userSpaceOnUse">
<stop offset="0.051" stop-color="#FF1F2C"/>
<stop offset="0.2187" stop-color="#F51C29"/>
<stop offset="0.5078" stop-color="#D9131F"/>
<stop offset="0.8812" stop-color="#AC0510"/>
<stop offset="1" stop-color="#9C000B"/>
</linearGradient>
<radialGradient id="paint5_radial_1_48" cx="0" cy="0" r="1" gradientUnits="userSpaceOnUse" gradientTransform="translate(312.499 -35.8652) scale(359.65 359.783)">
<stop offset="0.0808" stop-color="#424242"/>
<stop offset="0.4359" stop-color="#262626"/>
<stop offset="0.7336" stop-color="#0B0B0B"/>
<stop offset="1"/>
</radialGradient>
</defs>
</svg>
