<svg width="65" height="65" viewBox="0 0 65 65" fill="none" xmlns="http://www.w3.org/2000/svg">
<path d="M49.7066 6.75328C45.7663 6.75328 42.0471 7.3572 39.2338 8.4542C36.1251 9.66622 34.4131 11.3947 34.4131 13.3216C34.4131 13.6277 34.4553 13.9284 34.5394 14.2231C33.8599 14.1849 33.1781 14.1653 32.5 14.1653C31.8123 14.1653 31.1318 14.1847 30.4611 14.221C30.5448 13.927 30.5868 13.627 30.5868 13.3216C30.5868 10.7076 27.7598 9.21046 25.6523 8.4118C21.1049 6.68866 15.943 6.43653 11.1474 6.98497C10.6027 7.0473 10.2117 7.53925 10.2739 8.08413C10.3363 8.62876 10.8273 9.01927 11.3731 8.95757C15.8662 8.44887 20.7911 8.64577 25.0449 10.3042C27.2718 11.1724 28.6014 12.3005 28.6014 13.3218C28.6014 13.6782 28.4408 14.048 28.1233 14.424C28.1117 14.4253 28.1006 14.4271 28.089 14.4284C27.4608 14.5053 26.8351 14.6005 26.2124 14.7139C26.1818 14.7196 26.1515 14.7256 26.121 14.7313C22.8885 15.3359 20.2924 16.3872 18.7642 17.7314C18.6474 17.7431 18.5306 17.7545 18.413 17.7651C17.3757 17.8577 16.3348 17.9047 15.2934 17.9047C11.6133 17.9047 7.50953 17.4919 4.20685 15.7323C2.85124 15.0102 2.05169 14.1875 1.98948 13.4183C1.98694 13.3861 1.98555 13.3538 1.98555 13.3218C1.98555 11.9882 4.16698 10.5511 7.54305 9.66051C8.07308 9.5206 8.38957 8.9775 8.24967 8.44747C8.10977 7.91744 7.56653 7.60107 7.03663 7.74085C2.56471 8.92012 0 10.9544 0 13.3216V23.6455V33.9695V44.2934C0 48.5596 7.8796 50.8617 15.2934 50.8617C15.9313 50.8617 16.5711 50.8436 17.2065 50.8111V51.7056C17.2065 55.9717 25.0861 58.2739 32.4999 58.2739C36.4401 58.2739 40.1593 57.67 42.9726 56.573C46.0813 55.361 47.7934 53.6324 47.7934 51.7056V50.8111C48.4288 50.8436 49.0687 50.8617 49.7065 50.8617C53.6467 50.8617 57.3659 50.2578 60.1792 49.1608C63.2879 47.9488 65 46.2202 65 44.2934V33.9695V23.6455V13.3216C65 9.05545 57.1204 6.75328 49.7066 6.75328ZM17.2066 48.8247C16.572 48.8589 15.9316 48.8763 15.2935 48.8763C7.67673 48.8763 1.98542 46.4569 1.98542 44.2934V37.3327C1.99431 37.3393 2.00383 37.3457 2.01271 37.3522C2.75209 37.9 3.57424 38.3223 4.42203 38.6753C6.94319 39.7249 9.66558 40.2004 12.3756 40.4196C13.9179 40.5445 15.4689 40.5676 17.0145 40.4967C17.0784 40.4937 17.1427 40.4926 17.2066 40.4894V48.8247ZM17.2066 31.0576V38.4998C17.1728 38.5017 17.1388 38.5031 17.1049 38.5049C16.8642 38.5171 16.6231 38.5271 16.382 38.5349C16.0192 38.5464 15.6564 38.5525 15.2934 38.5525C7.6766 38.5525 1.98529 36.133 1.98529 33.9696V27.0089C1.99418 27.0155 2.0037 27.0219 2.01259 27.0283C2.09092 27.0865 2.17077 27.144 2.25304 27.2006C2.25938 27.2049 2.26611 27.2092 2.27246 27.2136C5.03115 29.0846 8.61504 29.7447 11.8746 30.0518C13.596 30.214 15.3268 30.2519 17.0539 30.1708C17.1046 30.1684 17.1559 30.1675 17.2066 30.165V31.0576ZM17.2067 20.7336V28.1754C17.1554 28.1781 17.1043 28.1806 17.053 28.183C13.4403 28.3606 9.68348 28.071 6.23797 26.9085C5.14693 26.5404 4.03901 26.0791 3.11924 25.3731C2.58413 24.9624 1.98542 24.372 1.98542 23.6454V16.6847C1.99431 16.6913 2.00383 16.6976 2.01259 16.7041C2.09206 16.7629 2.17204 16.8203 2.25316 16.8764C5.02811 18.7995 8.72638 19.4434 12.0217 19.7411C13.7706 19.8991 15.5292 19.9294 17.2825 19.8369C17.2998 19.8361 17.317 19.8355 17.3344 19.8344C17.2499 20.1286 17.2067 20.4285 17.2067 20.7336ZM45.8081 51.7055C45.8081 52.7267 44.4785 53.8548 42.2516 54.7232C39.6626 55.7326 36.1994 56.2884 32.5 56.2884C28.8006 56.2884 25.3374 55.7324 22.7483 54.7232C20.5215 53.8549 19.1919 52.7268 19.1919 51.7055V44.7448C19.2008 44.7514 19.2103 44.7577 19.2192 44.7642C22.8921 47.4878 28.0698 47.9497 32.5 47.9497C36.4402 47.9497 40.1595 47.3458 42.9727 46.2488C43.9545 45.866 44.9212 45.3896 45.7708 44.7539C45.783 44.7448 45.7961 44.736 45.8081 44.7269V51.7055ZM19.1919 41.3815V34.4208C19.2008 34.4274 19.2102 34.4336 19.2192 34.4402C23.1708 37.3666 28.4907 37.7099 33.2361 37.6186C37.3928 37.5388 42.3325 37.0023 45.7707 34.4299C45.7829 34.4208 45.7959 34.4121 45.808 34.4029V41.3814C45.808 41.4453 45.8028 41.5095 45.7925 41.5741C45.6384 42.5425 44.3393 43.585 42.2515 44.3991C39.1748 45.5986 35.7828 45.9643 32.5 45.9643C28.8006 45.9643 25.3374 45.4083 22.7483 44.3991C20.5215 43.5308 19.1919 42.4027 19.1919 41.3815ZM40.035 24.4504C39.5035 24.585 39.1819 25.1249 39.3164 25.6563C39.4509 26.188 39.9913 26.5093 40.5223 26.375C41.9583 26.0114 43.3829 25.5256 44.6829 24.8079C45.0425 24.6094 45.3911 24.39 45.7222 24.1469C45.7506 24.1259 45.7802 24.1055 45.8081 24.0844V31.0576C45.8081 31.1214 45.8029 31.1857 45.7926 31.2503C45.6384 32.2189 44.3393 33.2613 42.2515 34.0752C39.1737 35.2752 35.7839 35.6406 32.5 35.6406C28.8006 35.6406 25.3374 35.0846 22.7483 34.0752C20.5215 33.207 19.1919 32.0789 19.1919 31.0576V24.0969C19.2008 24.1035 19.2103 24.1098 19.2192 24.1163C22.8943 26.8385 28.0682 27.3019 32.5 27.3019C33.8113 27.3019 35.1258 27.2351 36.4296 27.0945C37.5418 26.9745 37.5942 25.3028 36.4769 25.1277C36.3926 25.1145 36.3055 25.1108 36.2166 25.1203C35.0115 25.2505 33.761 25.3165 32.4999 25.3165C28.8005 25.3165 25.3373 24.7606 22.7482 23.7512C20.5215 22.8831 19.1919 21.755 19.1918 20.7336C19.1916 19.0271 21.968 17.8652 23.2758 17.4111C27.319 16.0073 32.0764 15.8898 36.2911 16.3545C39.1752 16.6725 42.9462 17.2573 45.109 19.3932C45.1119 19.3962 45.1153 19.3982 45.1184 19.4011C45.1238 19.4064 45.1294 19.4115 45.1349 19.4166C45.5724 19.8562 45.808 20.3044 45.808 20.7335C45.8081 22.0822 43.488 23.5761 40.035 24.4504ZM59.4581 47.311C56.869 48.3204 53.4059 48.8762 49.7065 48.8762C49.0685 48.8762 48.428 48.8588 47.7934 48.8245V41.3814V40.4893C47.857 40.4925 47.9215 40.4936 47.9854 40.4965C48.5586 40.5226 49.1326 40.5375 49.7066 40.5375C51.4907 40.5375 53.2373 40.4136 54.8978 40.1695C55.4402 40.0896 55.8153 39.5854 55.7353 39.0429C55.6555 38.5006 55.1519 38.1254 54.6088 38.2054C53.0437 38.4356 51.3943 38.5524 49.7066 38.5524C49.1026 38.5524 48.4984 38.5346 47.895 38.5049C47.8611 38.5031 47.8272 38.5017 47.7933 38.4998V31.0576V30.165C47.8441 30.1676 47.8952 30.1684 47.946 30.1708C50.8428 30.307 53.8318 30.1552 56.6909 29.5445C58.8736 29.0784 61.1684 28.3698 62.9771 27.018C62.9893 27.0089 63.0024 27.0001 63.0145 26.991V33.9695C63.0145 35.1579 61.2534 36.454 58.4182 37.3523C57.8957 37.5178 57.6063 38.0758 57.7718 38.5985C57.9372 39.121 58.4949 39.411 59.018 39.2449C60.3714 38.8162 61.7009 38.2639 62.8622 37.4361C62.9135 37.3991 62.9648 37.3623 63.0145 37.325V44.2933H63.0147C63.0146 45.3147 61.6851 46.4428 59.4581 47.311ZM63.0146 23.6455C63.0146 24.6669 61.685 25.7949 59.4581 26.6632C56.869 27.6726 53.4059 28.2285 49.7065 28.2285C49.4198 28.2285 49.1326 28.224 48.8457 28.2169C48.7626 28.2148 48.6794 28.2119 48.5964 28.2095C48.3794 28.2028 48.163 28.194 47.9469 28.1833C47.8956 28.1808 47.8446 28.1784 47.7934 28.1757V20.734C47.7934 20.4238 47.7506 20.1246 47.6705 19.8354C47.6861 19.8362 47.7019 19.8367 47.7175 19.8376C51.8742 20.0528 56.2707 19.7133 60.1793 18.1893C61.1769 17.8002 62.1584 17.3164 63.0146 16.6673V23.6455ZM59.4581 16.3393C56.869 17.3487 53.4059 17.9045 49.7065 17.9045C48.5541 17.9045 47.4018 17.8473 46.2551 17.7331C45.5641 17.1251 44.6678 16.592 43.6245 16.1358C43.572 16.1124 43.5186 16.0894 43.4652 16.0666C43.4618 16.0652 43.4585 16.0636 43.455 16.0622C41.6727 15.2995 39.4236 14.7327 36.8766 14.4239C36.5591 14.0478 36.3985 13.6779 36.3985 13.3216C36.3985 12.3004 37.7281 11.1723 39.9549 10.3039C42.544 9.2945 46.0072 8.7387 49.7066 8.7387C53.406 8.7387 56.8692 9.29463 59.4582 10.3039C61.6851 11.1721 63.0147 12.3002 63.0147 13.3216C63.0147 14.3429 61.6851 15.4709 59.4581 16.3393Z" fill="#2D2D2D"/>
</svg>
