<svg width="56" height="49" viewBox="0 0 56 49" fill="none" xmlns="http://www.w3.org/2000/svg">
<path d="M53.4774 0.000302325C53.906 -0.00574379 55.6116 0.219172 55.8281 0.589799C55.9343 0.771661 55.9902 0.978463 55.9902 1.18905C55.9902 1.39963 55.9343 1.60644 55.8281 1.78831C55.722 1.97018 55.5694 2.12058 55.386 2.22413C55.2027 2.32768 54.9951 2.38065 54.7845 2.37764H53.5959V11.3483C55.1001 12.2425 55.9726 13.6131 55.9726 14.855C55.9726 16.0969 55.1001 17.4675 53.5959 18.3618V29.1746C55.1001 30.0689 55.9726 31.4395 55.9726 32.6814C55.9726 33.9233 55.1001 35.2939 53.5959 36.1881V45.16H54.7845C54.9428 45.1564 55.1003 45.1845 55.2476 45.2426C55.3949 45.3007 55.5291 45.3877 55.6423 45.4984C55.7555 45.6091 55.8455 45.7413 55.9069 45.8873C55.9684 46.0332 56 46.19 56 46.3484C56 46.5067 55.9684 46.6635 55.9069 46.8094C55.8455 46.9554 55.7555 47.0876 55.6423 47.1983C55.5291 47.309 55.3949 47.396 55.2476 47.4541C55.1003 47.5122 54.9428 47.5403 54.7845 47.5367H45.534V45.16H51.2209V34.7963L52.0335 34.5249C53.3842 34.0744 53.5983 33.2691 53.5983 32.682C53.5983 32.0949 53.3842 31.2914 52.0335 30.8391L51.2209 30.5677V16.9699L52.0335 16.6985C53.3842 16.248 53.5983 15.4427 53.5983 14.8556C53.5983 14.2685 53.3842 13.465 52.0335 13.0128L51.2209 12.7413V2.37703H27.9265V12.7407L27.1139 13.0122C25.7632 13.4626 25.5491 14.2679 25.5491 14.855C25.5491 15.4421 25.7632 16.2456 27.1139 16.6979L27.9265 16.9693V26.1455H25.5491V18.363C24.0448 17.4688 23.1724 16.0981 23.1724 14.8562C23.1724 13.6144 24.0448 12.2437 25.5491 11.3495V2.37703H24.3611C24.2027 2.3806 24.0453 2.35251 23.898 2.29439C23.7507 2.23627 23.6165 2.14931 23.5033 2.03861C23.39 1.9279 23.3001 1.79569 23.2386 1.64974C23.1772 1.50378 23.1456 1.34702 23.1456 1.18867C23.1456 1.03031 23.1772 0.873555 23.2386 0.727599C23.3001 0.581643 23.39 0.449431 23.5033 0.338728C23.6165 0.228024 23.7507 0.141061 23.898 0.0829451C24.0453 0.0248289 24.2027 -0.00326884 24.3611 0.000302325H53.4774ZM39.5713 8.57007L40.558 10.0326C40.558 10.0326 42.0653 12.2697 43.578 14.9397C44.3516 16.2832 45.0528 17.6671 45.6785 19.0855C46.2679 20.2693 46.6159 21.5586 46.7021 22.8782C46.7107 23.8201 46.5327 24.7544 46.1783 25.6271C45.8238 26.4999 45.3 27.2937 44.637 27.9628C43.974 28.632 43.185 29.1631 42.3156 29.5256C41.4462 29.888 40.5135 30.0747 39.5716 30.0747C38.6296 30.0747 37.697 29.888 36.8276 29.5256C35.9582 29.1631 35.1692 28.632 34.5062 27.9628C33.8432 27.2937 33.3194 26.4999 32.9649 25.6271C32.6104 24.7544 32.4324 23.8201 32.4411 22.8782C32.5273 21.5586 32.8752 20.2693 33.4647 19.0855C34.0904 17.6671 34.7915 16.2832 35.5651 14.9397C37.0767 12.2679 38.5852 10.0326 38.5852 10.0326L39.5713 8.57007ZM39.5713 12.9638C39.0271 13.8018 38.6039 14.4022 37.6365 16.1078C36.9065 17.3767 36.2439 18.6833 35.6516 20.022C35.2245 20.9236 34.9433 21.8872 34.8184 22.877C34.8184 23.5013 34.9414 24.1194 35.1803 24.6962C35.4192 25.2729 35.7693 25.797 36.2108 26.2384C36.6522 26.6799 37.1762 27.03 37.753 27.2689C38.3298 27.5078 38.9479 27.6308 39.5722 27.6308C40.1965 27.6308 40.8146 27.5078 41.3914 27.2689C41.9681 27.03 42.4922 26.6799 42.9336 26.2384C43.375 25.797 43.7252 25.2729 43.9641 24.6962C44.203 24.1194 44.326 23.5013 44.326 22.877C44.2011 21.8872 43.9199 20.9236 43.4928 20.022C42.9006 18.6835 42.2383 17.3771 41.5085 16.1084C40.5423 14.4022 40.1166 13.8018 39.5725 12.9638H39.5713ZM25.5503 28.5223C25.7982 28.5226 26.0397 28.6005 26.2411 28.7449C26.4425 28.8893 26.5938 29.093 26.6737 29.3276L28.6955 33.9626C28.7365 34.086 28.7569 34.2153 28.756 34.3453H32.7978C33.0456 34.3457 33.2872 34.4235 33.4886 34.5679C33.69 34.7123 33.8413 34.916 33.9212 35.1506L35.943 39.7856C35.984 39.909 36.0044 40.0383 36.0035 40.1683H38.7375C38.9854 40.1687 39.2269 40.2465 39.4283 40.3909C39.6297 40.5353 39.781 40.7391 39.8609 40.9736L41.8827 45.6086C41.9237 45.732 41.9441 45.8613 41.9432 45.9913V47.18C41.9432 47.4952 41.8179 47.7976 41.595 48.0205C41.3721 48.2434 41.0698 48.3687 40.7545 48.3687H1.1887C0.873443 48.3687 0.5711 48.2434 0.348182 48.0205C0.125264 47.7976 2.93787e-05 47.4952 2.93787e-05 47.18V45.9919C-0.000884765 45.8619 0.0195402 45.7326 0.0604905 45.6092L2.08231 40.9743C2.16223 40.7397 2.31349 40.5359 2.51491 40.3915C2.71633 40.2471 2.95785 40.1693 3.20568 40.1689H5.93974C5.93882 40.0389 5.95925 39.9096 6.0002 39.7862L8.02202 35.1512C8.10194 34.9166 8.25319 34.7129 8.45461 34.5685C8.65604 34.4241 8.89756 34.3463 9.14539 34.3459H13.1872C13.1863 34.2159 13.2067 34.0866 13.2477 33.9632L15.2762 29.3276C15.3561 29.093 15.5073 28.8893 15.7087 28.7449C15.9102 28.6005 16.1517 28.5226 16.3995 28.5223H25.5503ZM24.6984 30.899H17.2496L15.6341 34.3453H26.314L24.6984 30.899ZM31.9477 36.722H24.4989L22.8834 40.1683H33.5633L31.9477 36.722ZM17.4491 36.722H10.0003L8.38479 40.1683H19.0647L17.4491 36.722ZM37.8886 42.5456H30.441L28.8255 45.9919H39.5054L37.8886 42.5456ZM24.6972 42.5456H17.2496L15.6341 45.9919H26.314L24.6972 42.5456ZM11.5058 42.5456H4.05818L2.44266 45.9919H13.1225L11.5058 42.5456Z" fill="#2D2D2D"/>
</svg>
