<svg width="63" height="63" viewBox="0 0 63 63" fill="none" xmlns="http://www.w3.org/2000/svg">
<path d="M31.501 20.7227C28.8626 20.7227 26.3329 21.7704 24.4674 23.6364C22.6016 25.5018 21.5537 28.0314 21.5537 30.67C21.5537 33.3085 22.6015 35.8381 24.4674 37.7035C26.3329 39.5694 28.8625 40.6173 31.501 40.6173C34.1396 40.6173 36.6692 39.5695 38.5346 37.7035C40.4004 35.8381 41.4483 33.3085 41.4483 30.67C41.4483 28.0314 40.4006 25.5018 38.5346 23.6364C36.6692 21.7705 34.1396 20.7227 31.501 20.7227ZM31.501 38.9594C29.3025 38.9594 27.1938 38.0863 25.6395 36.5315C24.0847 34.9772 23.2116 32.8684 23.2116 30.67C23.2116 28.4715 24.0847 26.3627 25.6395 24.8084C27.1938 23.2536 29.3025 22.3805 31.501 22.3805C33.6995 22.3805 35.8083 23.2537 37.3625 24.8084C38.9174 26.3627 39.7904 28.4715 39.7904 30.67C39.7904 32.8684 38.9173 34.9772 37.3625 36.5315C35.8083 38.0863 33.6995 38.9594 31.501 38.9594Z" fill="#2D2D2D"/>
<path d="M56.368 27.3545H44.3237C43.6084 24.5866 42.0177 22.1239 39.7892 20.3331V9.94647H43.9339V12.4334H50.5656V5.80176H43.9339V8.28873H38.1315V19.1975C36.3581 18.1746 34.3719 17.5755 32.329 17.4484V13.2621H30.6707V17.4068C28.6278 17.5346 26.6416 18.133 24.8682 19.1559V8.28873H19.0658V5.80176H12.4341V12.4334H19.0658V9.94647H23.2105V20.3331C20.982 22.1239 19.3913 24.5865 18.6761 27.3545H6.63168V24.8676H0V31.4992H6.63168V29.0123H18.3529C18.2806 29.5622 18.2419 30.1155 18.2367 30.67C18.2378 32.0786 18.4645 33.4779 18.9086 34.8147H13.2634V44.7619H9.94729V42.2749H3.3162V48.9066H9.94788L9.94731 46.4196H14.9213V36.4724H19.588C20.4502 38.2302 21.687 39.7776 23.2107 41.0069V56.1765H20.7237V62.8082H27.3554V56.1765H24.8684V42.1424C26.6383 43.1797 28.6245 43.7926 30.6708 43.9332V48.3266H32.3286L32.3292 43.9332C34.3721 43.8054 36.3583 43.207 38.1316 42.1841V56.3673H35.6446V62.999H42.2763V56.3673H39.7893V41.0068C41.313 39.7775 42.5497 38.2301 43.412 36.4723H48.0788V46.4194H53.0527V48.9064H59.6844L59.6838 42.2747H53.0527V44.7617H49.7367V34.8146H44.0914C44.5355 33.4777 44.7621 32.0785 44.7633 30.6699C44.7581 30.1153 44.7194 29.562 44.6471 29.0121H56.3683V31.4991H63V24.8674H56.3683L56.368 27.3545ZM45.5916 7.45994H48.9071V10.7754L45.5916 10.776V7.45994ZM17.4076 10.776H14.0916V7.45994H17.407L17.4076 10.776ZM4.9735 29.8417H1.65744V26.5262H4.97291L4.9735 29.8417ZM8.28897 47.2494H4.9735V43.934H8.28897V47.2494ZM25.6967 61.1505H22.3807V57.835H25.6962L25.6967 61.1505ZM40.6177 58.0258V61.3413H37.3016V58.0258H40.6177ZM54.7096 43.934H58.025V47.2494H54.7096V43.934ZM31.4992 42.2756C28.4213 42.2756 25.4695 41.0533 23.293 38.8768C21.1164 36.7004 19.8942 33.7485 19.8942 30.6706C19.8942 27.5927 21.1165 24.6409 23.293 22.4644C25.4694 20.2878 28.4213 19.0656 31.4992 19.0656C34.5771 19.0656 37.5289 20.2879 39.7054 22.4644C41.882 24.6408 43.1042 27.5927 43.1042 30.6706C43.1042 33.7485 41.8819 36.7003 39.7054 38.8768C37.529 41.0534 34.5771 42.2756 31.4992 42.2756ZM58.0253 26.5257H61.3408V29.8412H58.0253V26.5257Z" fill="#2D2D2D"/>
<path d="M30.6729 6.63281H32.3306V11.6068H30.6729V6.63281Z" fill="#2D2D2D"/>
<path d="M30.6729 0H32.3306V4.97395H30.6729V0Z" fill="#2D2D2D"/>
<path d="M30.6729 49.9863H32.3306V54.9603H30.6729V49.9863Z" fill="#2D2D2D"/>
<path d="M30.6729 56.6172H32.3306V61.5911H30.6729V56.6172Z" fill="#2D2D2D"/>
</svg>
