<svg width="66" height="65" viewBox="0 0 66 65" fill="none" xmlns="http://www.w3.org/2000/svg">
<path d="M25.1032 34.3193V23.0518C25.1032 22.5695 24.7123 22.1785 24.2299 22.1785H22.1094V19.471C22.1094 18.9886 21.7184 18.5977 21.2361 18.5977C20.7537 18.5977 20.3628 18.9886 20.3628 19.471V22.1785H18.2422C17.7599 22.1785 17.3689 22.5695 17.3689 23.0518V34.3193C17.3689 34.8016 17.7599 35.1926 18.2422 35.1926H19.8938C19.8938 35.1993 19.8902 35.2041 19.8902 35.2108V37.656C19.8902 38.1383 20.2811 38.5293 20.7635 38.5293C21.2458 38.5293 21.6368 38.1383 21.6368 37.656V35.2108C21.6368 35.2041 21.6331 35.1986 21.6331 35.1926H24.2304C24.7121 35.1919 25.1031 34.801 25.1031 34.3193H25.1032ZM23.3573 33.446H19.1163L19.1157 23.9244H23.3567L23.3573 33.446Z" fill="#00B473"/>
<path d="M65.1274 19.4675H63.0068V8.66041C63.0068 8.17808 62.6158 7.78711 62.1335 7.78711C61.6512 7.78711 61.2602 8.17808 61.2602 8.66041V19.4675H59.1396C58.6573 19.4675 58.2664 19.8585 58.2664 20.3408V34.4419C58.2664 34.9242 58.6573 35.3152 59.1396 35.3152H61.2602V40.3917C61.2602 40.874 61.6512 41.265 62.1335 41.265C62.6158 41.265 63.0068 40.874 63.0068 40.3917V35.3152H65.1274C65.6097 35.3152 66.0007 34.9242 66.0007 34.4419V20.3402C66.0007 19.8585 65.6097 19.4675 65.1274 19.4675V19.4675ZM64.2541 33.5686H60.0131V21.2134H64.2541V33.5686Z" fill="#00B473"/>
<path d="M34.8622 46.913C35.3445 46.913 35.7355 46.522 35.7355 46.0397V42.0434H37.856C38.3384 42.0434 38.7293 41.6525 38.7293 41.1701L38.7287 31.0816C38.7287 30.5993 38.3378 30.2083 37.8554 30.2083H35.7348V21.5637C35.7348 21.0814 35.3439 20.6904 34.8616 20.6904C34.3792 20.6904 33.9883 21.0814 33.9883 21.5637V30.2083H31.8677C31.3854 30.2083 30.9944 30.5993 30.9944 31.0816V41.1701C30.9944 41.6525 31.3854 42.0434 31.8677 42.0434H33.9883V46.0397C33.9889 46.522 34.3798 46.913 34.8622 46.913Z" fill="#00B473"/>
<path d="M48.501 54.0005C48.9833 54.0005 49.3743 53.6095 49.3743 53.1272V51.3404H51.4948C51.9772 51.3404 52.3681 50.9495 52.3681 50.4671V37.1564C52.3681 36.6741 51.9772 36.2831 51.4948 36.2831H49.3743V16.8313C49.3743 16.349 48.9833 15.958 48.501 15.958C48.0186 15.958 47.6277 16.349 47.6277 16.8313V36.2831H45.5071C45.0248 36.2831 44.6338 36.6741 44.6338 37.1564V50.4684C44.6338 50.9507 45.0248 51.3417 45.5071 51.3417H47.6277V53.1285C47.6283 53.6102 48.0192 54.0005 48.501 54.0005V54.0005Z" fill="#00B473"/>
<path d="M7.59666 52.2017C8.07899 52.2017 8.46996 51.8108 8.46996 51.3284V48.7664H10.5905C11.0729 48.7664 11.4638 48.3754 11.4638 47.8931V30.5069C11.4638 30.0246 11.0729 29.6336 10.5905 29.6336H8.46996V27.0715C8.46996 26.5892 8.07899 26.1982 7.59666 26.1982C7.11433 26.1982 6.72336 26.5892 6.72336 27.0715V29.6336H4.60279C4.12046 29.6336 3.72949 30.0246 3.72949 30.5069V47.8931C3.72949 48.3754 4.12046 48.7664 4.60279 48.7664H6.72336V51.3284C6.72397 51.8108 7.11494 52.2017 7.59666 52.2017Z" fill="#00B473"/>
<path d="M13.4218 22.0035C13.5399 21.9578 13.6471 21.8872 13.7348 21.7958L18.5562 16.8137L34.1409 19.0542C34.3065 19.0791 34.4758 19.0536 34.6287 18.9841L48.1586 12.7895C48.2122 12.7646 48.2627 12.7347 48.3108 12.7L62.6489 2.19804C63.0381 1.91303 63.1227 1.36677 62.8371 0.978232C62.5527 0.589087 62.0065 0.50504 61.6173 0.790059L47.3505 11.2386L34.1347 17.2894L18.3637 15.0221C18.0878 14.9826 17.8071 15.0776 17.6122 15.2791L12.6142 20.4434L0.559248 25.0917C0.109815 25.2653 -0.1149 25.7708 0.058665 26.2208C0.192644 26.5673 0.52272 26.7798 0.873498 26.7798C0.977636 26.7798 1.08422 26.7604 1.18773 26.7208L13.4218 22.0035Z" fill="#00B473"/>
<path d="M62.0291 46.0656L48.381 58.4227L34.5534 50.4516C34.4833 50.4114 34.4078 50.3803 34.3293 50.3608L20.968 47.015C20.7439 46.9596 20.5101 46.9931 20.3122 47.11L6.47044 55.2651C6.35595 55.3327 6.25791 55.4265 6.18423 55.5373L1.14674 63.1905C0.881829 63.5936 0.99327 64.135 1.39582 64.4C1.54381 64.4974 1.71066 64.5437 1.87509 64.5437C2.15888 64.5437 2.43719 64.4054 2.60527 64.1509L7.53082 56.667L20.8902 48.7965L33.7862 52.026L48.0591 60.254C48.3874 60.444 48.8003 60.3995 49.0816 60.145L63.201 47.361C63.5585 47.0377 63.5853 46.4853 63.2619 46.1278C62.9397 45.7703 62.3874 45.7411 62.0293 46.0657L62.0291 46.0656Z" fill="#00B473"/>
</svg>
