<svg width="549" height="563" viewBox="0 0 549 563" fill="none" xmlns="http://www.w3.org/2000/svg">
<path d="M84.9609 268.003L97.8266 280.936" stroke="#313C4B" stroke-width="1.6547" stroke-miterlimit="10" stroke-linecap="round" stroke-linejoin="round"/>
<path d="M40.7883 223.576L64.4368 247.371" stroke="#313C4B" stroke-width="1.6547" stroke-miterlimit="10" stroke-linecap="round" stroke-linejoin="round"/>
<path d="M80.8604 226.455L169.965 316.007" stroke="#313C4B" stroke-width="1.6547" stroke-miterlimit="10" stroke-linecap="round" stroke-linejoin="round"/>
<path d="M35.4509 180.784L53.5019 198.952" stroke="#313C4B" stroke-width="1.6547" stroke-miterlimit="10" stroke-linecap="round" stroke-linejoin="round"/>
<path d="M144.906 253.391L223.294 332.191" stroke="#2CA6A3" stroke-width="1.6547" stroke-miterlimit="10" stroke-linecap="round" stroke-linejoin="round"/>
<path d="M26.6208 134.481L110.193 218.516" stroke="#2CA6A3" stroke-width="1.6547" stroke-miterlimit="10" stroke-linecap="round" stroke-linejoin="round"/>
<path d="M92.1423 162.943L230.518 302.026" stroke="#313C4B" stroke-width="1.6547" stroke-miterlimit="10" stroke-linecap="round" stroke-linejoin="round"/>
<path d="M34.9304 105.431L64.2198 134.874" stroke="#313C4B" stroke-width="1.6547" stroke-miterlimit="10" stroke-linecap="round" stroke-linejoin="round"/>
<path d="M206.393 240.348L239.652 273.783" stroke="#313C4B" stroke-width="1.6547" stroke-miterlimit="10" stroke-linecap="round" stroke-linejoin="round"/>
<path d="M1.80078 34.6787L171.419 205.19" stroke="#313C4B" stroke-width="1.6547" stroke-miterlimit="10" stroke-linecap="round" stroke-linejoin="round"/>
<path d="M137.834 134.023L303.547 300.587" stroke="#2CA6A3" stroke-width="1.6547" stroke-miterlimit="10" stroke-linecap="round" stroke-linejoin="round"/>
<path d="M64.6536 60.4365L103.142 99.1495" stroke="#2CA6A3" stroke-width="1.6547" stroke-miterlimit="10" stroke-linecap="round" stroke-linejoin="round"/>
<path d="M170.009 128.92L277.034 236.509" stroke="#313C4B" stroke-width="1.6547" stroke-miterlimit="10" stroke-linecap="round" stroke-linejoin="round"/>
<path d="M60.7268 19.0625L139.83 98.5822" stroke="#313C4B" stroke-width="1.6547" stroke-miterlimit="10" stroke-linecap="round" stroke-linejoin="round"/>
<path d="M258.289 180.239L314.199 236.444" stroke="#2CA6A3" stroke-width="1.6547" stroke-miterlimit="10" stroke-linecap="round" stroke-linejoin="round"/>
<path d="M109.065 30.2295L217.674 139.411" stroke="#2CA6A3" stroke-width="1.6547" stroke-miterlimit="10" stroke-linecap="round" stroke-linejoin="round"/>
<path d="M204.136 88.3535L279.659 164.296" stroke="#313C4B" stroke-width="1.6547" stroke-miterlimit="10" stroke-linecap="round" stroke-linejoin="round"/>
<path d="M118.025 1.81055L174.521 58.5823" stroke="#313C4B" stroke-width="1.6547" stroke-miterlimit="10" stroke-linecap="round" stroke-linejoin="round"/>
<path d="M271.263 118.429L300.639 147.96" stroke="#2CA6A3" stroke-width="1.6547" stroke-miterlimit="10" stroke-linecap="round" stroke-linejoin="round"/>
<path d="M163.218 9.81445L237.7 84.6667" stroke="#2CA6A3" stroke-width="1.6547" stroke-miterlimit="10" stroke-linecap="round" stroke-linejoin="round"/>
<path d="M255.989 65.6484L274.04 83.7944" stroke="#313C4B" stroke-width="1.6547" stroke-miterlimit="10" stroke-linecap="round" stroke-linejoin="round"/>
<path d="M224.292 33.7842L236.745 46.2814" stroke="#313C4B" stroke-width="1.6547" stroke-miterlimit="10" stroke-linecap="round" stroke-linejoin="round"/>
<path d="M340.627 503.522L352.23 515.178" stroke="#313C4B" stroke-width="1.6547" stroke-miterlimit="10" stroke-linecap="round" stroke-linejoin="round"/>
<path d="M300.788 463.485L322.116 484.929" stroke="#313C4B" stroke-width="1.6547" stroke-miterlimit="10" stroke-linecap="round" stroke-linejoin="round"/>
<path d="M336.929 466.08L417.292 546.784" stroke="#313C4B" stroke-width="1.6547" stroke-miterlimit="10" stroke-linecap="round" stroke-linejoin="round"/>
<path d="M295.974 424.922L312.254 441.295" stroke="#313C4B" stroke-width="1.6547" stroke-miterlimit="10" stroke-linecap="round" stroke-linejoin="round"/>
<path d="M394.692 490.354L465.389 561.368" stroke="#2CA6A3" stroke-width="1.6547" stroke-miterlimit="10" stroke-linecap="round" stroke-linejoin="round"/>
<path d="M288.01 383.193L363.384 458.925" stroke="#2CA6A3" stroke-width="1.6547" stroke-miterlimit="10" stroke-linecap="round" stroke-linejoin="round"/>
<path d="M347.104 408.844L471.905 534.185" stroke="#313C4B" stroke-width="1.6547" stroke-miterlimit="10" stroke-linecap="round" stroke-linejoin="round"/>
<path d="M295.504 357.013L321.92 383.547" stroke="#313C4B" stroke-width="1.6547" stroke-miterlimit="10" stroke-linecap="round" stroke-linejoin="round"/>
<path d="M450.146 478.6L480.143 508.731" stroke="#313C4B" stroke-width="1.6547" stroke-miterlimit="10" stroke-linecap="round" stroke-linejoin="round"/>
<path d="M265.625 293.251L418.603 446.915" stroke="#313C4B" stroke-width="1.6547" stroke-miterlimit="10" stroke-linecap="round" stroke-linejoin="round"/>
<path d="M388.313 382.781L537.769 532.888" stroke="#2CA6A3" stroke-width="1.6547" stroke-miterlimit="10" stroke-linecap="round" stroke-linejoin="round"/>
<path d="M322.312 316.464L357.025 351.352" stroke="#2CA6A3" stroke-width="1.6547" stroke-miterlimit="10" stroke-linecap="round" stroke-linejoin="round"/>
<path d="M417.332 378.182L513.858 475.141" stroke="#313C4B" stroke-width="1.6547" stroke-miterlimit="10" stroke-linecap="round" stroke-linejoin="round"/>
<path d="M318.77 279.178L390.113 350.841" stroke="#313C4B" stroke-width="1.6547" stroke-miterlimit="10" stroke-linecap="round" stroke-linejoin="round"/>
<path d="M496.951 424.431L547.377 475.082" stroke="#2CA6A3" stroke-width="1.6547" stroke-miterlimit="10" stroke-linecap="round" stroke-linejoin="round"/>
<path d="M362.366 289.241L460.321 387.635" stroke="#2CA6A3" stroke-width="1.6547" stroke-miterlimit="10" stroke-linecap="round" stroke-linejoin="round"/>
<path d="M448.111 341.623L516.225 410.063" stroke="#313C4B" stroke-width="1.6547" stroke-miterlimit="10" stroke-linecap="round" stroke-linejoin="round"/>
<path d="M370.448 263.631L421.401 314.793" stroke="#313C4B" stroke-width="1.6547" stroke-miterlimit="10" stroke-linecap="round" stroke-linejoin="round"/>
<path d="M508.653 368.728L535.147 395.341" stroke="#2CA6A3" stroke-width="1.6547" stroke-miterlimit="10" stroke-linecap="round" stroke-linejoin="round"/>
<path d="M411.207 270.845L478.382 338.301" stroke="#2CA6A3" stroke-width="1.6547" stroke-miterlimit="10" stroke-linecap="round" stroke-linejoin="round"/>
<path d="M494.877 321.162L511.157 337.515" stroke="#313C4B" stroke-width="1.6547" stroke-miterlimit="10" stroke-linecap="round" stroke-linejoin="round"/>
<path d="M466.289 292.445L477.521 303.708" stroke="#313C4B" stroke-width="1.6547" stroke-miterlimit="10" stroke-linecap="round" stroke-linejoin="round"/>
</svg>
