<svg width="55" height="55" viewBox="0 0 55 55" fill="none" xmlns="http://www.w3.org/2000/svg">
<path d="M26.1799 40.0779C26.1799 40.7202 26.7013 41.2413 27.3432 41.2413C27.9856 41.2413 28.5066 40.7198 28.5066 40.0779V37.2803H30.3701C33.4323 37.2803 35.9234 34.7899 35.9234 31.7287C35.9234 28.6669 33.4323 26.1758 30.3701 26.1758H28.5066L28.507 19.7278H34.0173C34.6597 19.7278 35.1807 19.2063 35.1807 18.5644C35.1807 17.922 34.6593 17.401 34.0173 17.401H28.507V14.6019C28.507 13.9595 27.9856 13.4385 27.3437 13.4385C26.7013 13.4385 26.1803 13.9599 26.1803 14.6019V17.401H24.321C21.2581 17.401 18.7668 19.8914 18.7668 22.9526C18.7668 26.0131 21.258 28.5031 24.321 28.5031H26.1803V34.9536L19.9302 34.9532C19.2879 34.9532 18.7668 35.4747 18.7668 36.1166C18.7668 36.759 19.2883 37.28 19.9302 37.28H26.1799L26.1799 40.0779ZM24.3209 19.7282H26.1802V26.1762H24.3209C22.5415 26.1762 21.094 24.73 21.094 22.9526C21.0936 21.1745 22.5411 19.7282 24.3209 19.7282ZM30.3704 34.9533H28.5069V28.5028H30.3704C32.1494 28.5028 33.5969 29.9495 33.5969 31.7285C33.5965 33.5071 32.1494 34.9533 30.3704 34.9533Z" fill="#2D2D2D"/>
<path d="M4.20799 13.182C4.20799 13.1925 4.21042 13.2019 4.21164 13.2116C4.21691 13.2733 4.22543 13.3342 4.24126 13.395C4.24572 13.4149 4.25344 13.4336 4.25912 13.4531C4.27413 13.5017 4.29036 13.55 4.31187 13.5975C4.32526 13.6271 4.34231 13.6543 4.35773 13.6823C4.37761 13.7168 4.39627 13.7509 4.419 13.7834C4.44578 13.8211 4.47703 13.8556 4.50746 13.8897C4.52532 13.91 4.54236 13.9303 4.56224 13.9497C4.60526 13.9915 4.65436 14.0285 4.70427 14.0638C4.71482 14.0703 4.72172 14.0788 4.73146 14.0853C4.7339 14.0865 4.73674 14.0869 4.73917 14.0889C4.75378 14.0983 4.76595 14.1104 4.78097 14.1198L14.0992 19.57C14.2834 19.6784 14.4859 19.7295 14.6856 19.7295C15.0857 19.7295 15.4744 19.5237 15.6915 19.1528C16.0162 18.5977 15.8287 17.886 15.2744 17.5614L7.03549 12.7421C11.7386 6.20152 19.2355 2.32678 27.3395 2.32678C27.9818 2.32678 28.5029 1.80534 28.5029 1.16339C28.5029 0.521016 27.9814 0 27.3395 0C18.0379 0 9.45909 4.66415 4.38959 12.4764C4.29058 12.629 4.23619 12.7953 4.2151 12.9645V12.967C4.20576 13.0392 4.20292 13.1106 4.2082 13.1821L4.20799 13.182Z" fill="#2D2D2D"/>
<path d="M18.6334 50.7985C8.8801 47.1777 2.32683 37.7498 2.32683 27.3396C2.32683 25.4559 2.53784 23.5767 2.9546 21.7555C3.09784 21.1289 2.70544 20.5052 2.07889 20.3616C1.45478 20.2183 0.828656 20.6099 0.684986 21.2365C0.230496 23.2285 0 25.2818 0 27.3396C0 38.7179 7.16223 49.0221 17.8243 52.979C17.9574 53.0285 18.095 53.0517 18.2293 53.0517C18.7016 53.0517 19.146 52.7615 19.32 52.2924C19.544 51.6914 19.236 51.0219 18.6338 50.7979L18.6334 50.7985Z" fill="#2D2D2D"/>
<path d="M38.0985 2.20176C38.0932 2.19933 38.0892 2.19608 38.0847 2.19365C38.0782 2.19081 38.0717 2.18959 38.0648 2.18675C38.0368 2.17458 38.0096 2.16159 37.9816 2.15023C37.3884 1.89904 36.707 2.17661 36.457 2.76785C36.4063 2.88715 36.3832 3.00929 36.3734 3.13144L32.4165 11.7493C32.1483 12.3332 32.4044 13.0239 32.9879 13.2922C33.1457 13.3648 33.3109 13.3985 33.4732 13.3985C33.9135 13.3985 34.3347 13.1465 34.5308 12.72L38.1711 4.7912C46.8259 8.94778 52.3554 17.6696 52.3554 27.3411C52.3554 40.7452 41.7593 51.7173 28.5027 52.3282V45.6305C28.5027 44.9881 27.9813 44.4671 27.3393 44.4671C26.697 44.4671 26.1759 44.9886 26.1759 45.6305L26.1755 53.5212C26.1755 54.1635 26.697 54.6846 27.3389 54.6846C42.4155 54.6846 54.682 42.4191 54.682 27.3415C54.682 16.3724 48.1759 6.52013 38.0992 2.20274L38.0985 2.20176Z" fill="#2D2D2D"/>
</svg>
